<svg width="180" height="49" viewBox="0 0 180 49" fill="none" xmlns="http://www.w3.org/2000/svg">
<path d="M59.8538 24.9791H57.3042V33.6862H55.7896V15.2188H57.3042V23.6864H59.8538L67.1462 15.1777H68.8665V15.2393L61.2246 24.2746L69.4491 33.5972V33.6656H67.6465L59.8538 24.9791Z" fill="white"/>
<path d="M90.1954 28.5084H81.7105L79.8051 33.6861H78.2219L85.2607 15.2188H86.7L93.684 33.6861H92.1076L90.1954 28.5084ZM82.2177 27.1405H89.702L86.0146 17.1407H85.9324L82.2177 27.1405Z" fill="white"/>
<path d="M117.946 33.6862H116.438L105.911 17.77H105.835V33.6862H104.314V15.2188H105.835L116.356 31.087H116.438V15.1777H117.946V33.6862Z" fill="white"/>
<path d="M141.221 29.1236C141.233 28.6533 141.137 28.1866 140.941 27.7588C140.745 27.331 140.455 26.9533 140.091 26.6544C138.907 25.8268 137.566 25.2517 136.15 24.965C134.495 24.6239 132.928 23.9489 131.544 22.9815C131.038 22.5996 130.631 22.1021 130.358 21.5308C130.085 20.9594 129.954 20.331 129.974 19.6984C129.97 19.0295 130.127 18.3694 130.432 17.7741C130.738 17.1787 131.182 16.6657 131.729 16.2785C133.036 15.3453 134.619 14.8757 136.225 14.9447C137.911 14.8659 139.564 15.4337 140.844 16.5316C141.403 17.007 141.846 17.602 142.142 18.2724C142.437 18.9427 142.577 19.671 142.551 20.4029L142.51 20.4781H141.139C141.155 19.9058 141.046 19.3369 140.818 18.8111C140.591 18.2854 140.251 17.8156 139.823 17.4344C138.83 16.5946 137.552 16.1663 136.252 16.2374C135.013 16.165 133.785 16.5147 132.771 17.2292C132.382 17.5115 132.065 17.8818 131.847 18.3098C131.629 18.7379 131.516 19.2114 131.517 19.6915C131.514 20.1435 131.618 20.5897 131.819 20.9947C132.02 21.3996 132.313 21.7521 132.675 22.0239C133.869 22.815 135.208 23.3613 136.616 23.6312C138.264 23.9773 139.817 24.6775 141.167 25.6832C141.672 26.0953 142.075 26.6184 142.345 27.2115C142.615 27.8047 142.744 28.452 142.722 29.1031C142.742 29.7937 142.586 30.478 142.27 31.0926C141.953 31.7071 141.487 32.2321 140.913 32.6187C139.551 33.5384 137.93 33.9986 136.287 33.9319C134.572 33.9783 132.884 33.5011 131.448 32.564C130.779 32.1302 130.24 31.5246 129.886 30.8109C129.533 30.0972 129.379 29.3017 129.44 28.508V28.4328H130.811C130.778 29.0689 130.919 29.702 131.217 30.2653C131.514 30.8286 131.959 31.3013 132.503 31.6338C133.643 32.3424 134.965 32.7015 136.307 32.6666C137.565 32.7253 138.809 32.3879 139.864 31.7022C140.294 31.425 140.644 31.0421 140.882 30.5904C141.119 30.1387 141.236 29.6335 141.221 29.1236Z" fill="white"/>
<path d="M164.031 28.5084H155.546L153.633 33.6861H152.057L159.089 15.2188H160.528L167.512 33.6861H165.936L164.031 28.5084ZM156.053 27.1405H163.53L159.843 17.1407H159.768L156.053 27.1405Z" fill="white"/>
<path d="M180 33.6861H178.472V15.2188H180V33.6861Z" fill="white"/>
<path d="M48.3326 24.1102C48.334 28.8804 46.9178 33.5438 44.2632 37.5108C41.6086 41.4777 37.8348 44.5699 33.4191 46.3963C29.0034 48.2227 24.1442 48.7013 19.4559 47.7715C14.7677 46.8417 10.461 44.5453 7.08058 41.1728C3.70018 37.8002 1.39788 33.503 0.464862 28.8246C-0.468157 24.1461 0.0100166 19.2966 1.83891 14.8894C3.6678 10.4822 6.76525 6.71525 10.7395 4.06493C14.7138 1.41461 19.3864 1.91841e-07 24.1663 0C30.5744 -2.57187e-07 36.7202 2.53996 41.2521 7.0613C45.7839 11.5826 48.3308 17.7151 48.3326 24.1102Z" fill="white"/>
<mask id="path-8-inside-1" fill="white">
<path d="M35.9548 17.038L28.5185 9.61683L21.4112 16.7097L14.0708 9.38428V38.8705L21.4112 31.552L28.2649 38.3918L28.4979 38.6243L35.9548 31.2237L28.8475 24.1103L35.9548 17.038ZM28.7515 10.4992L35.2969 17.038L28.7515 23.57V10.4992ZM14.7356 24.1103L21.4728 17.3663L28.1895 24.1103L21.4728 30.8954L14.7356 24.1103ZM28.2855 23.5494L21.7676 16.9901L28.2855 10.4786V23.5494ZM14.5369 10.4992L21.1096 17.0653L14.5369 23.6726V10.4992ZM14.5369 24.5823L21.1096 31.1963L14.5369 37.7899V24.5823ZM21.7676 31.251L28.2855 24.6917V37.7899L21.7676 31.251ZM35.2969 31.251L28.7515 37.7899V24.6848L35.2969 31.251Z"/>
</mask>
<path d="M35.9548 17.038L28.5185 9.61683L21.4112 16.7097L14.0708 9.38428V38.8705L21.4112 31.552L28.2649 38.3918L28.4979 38.6243L35.9548 31.2237L28.8475 24.1103L35.9548 17.038ZM28.7515 10.4992L35.2969 17.038L28.7515 23.57V10.4992ZM14.7356 24.1103L21.4728 17.3663L28.1895 24.1103L21.4728 30.8954L14.7356 24.1103ZM28.2855 23.5494L21.7676 16.9901L28.2855 10.4786V23.5494ZM14.5369 10.4992L21.1096 17.0653L14.5369 23.6726V10.4992ZM14.5369 24.5823L21.1096 31.1963L14.5369 37.7899V24.5823ZM21.7676 31.251L28.2855 24.6917V37.7899L21.7676 31.251ZM35.2969 31.251L28.7515 37.7899V24.6848L35.2969 31.251Z" fill="white"/>
<path d="M35.9548 17.038L36.6602 17.7468L37.3715 17.039L36.6612 16.3302L35.9548 17.038ZM28.5185 9.61683L29.2249 8.909L28.5185 8.20406L27.8121 8.909L28.5185 9.61683ZM21.4112 16.7097L20.7048 17.4175L21.4112 18.1224L22.1175 17.4175L21.4112 16.7097ZM14.0708 9.38428L14.7772 8.67645L13.0708 6.97354V9.38428H14.0708ZM14.0708 38.8705H13.0708V41.2797L14.7769 39.5787L14.0708 38.8705ZM21.4112 31.552L22.1175 30.8442L21.4115 30.1395L20.7051 30.8438L21.4112 31.552ZM28.2649 38.3918L28.9713 37.6839L28.9713 37.6839L28.2649 38.3918ZM28.4979 38.6243L27.7915 39.3321L28.496 40.0351L29.2024 39.3341L28.4979 38.6243ZM35.9548 31.2237L36.6592 31.9335L37.3714 31.2267L36.6622 30.5169L35.9548 31.2237ZM28.8475 24.1103L28.1421 23.4015L27.4318 24.1083L28.1401 24.8171L28.8475 24.1103ZM28.7515 10.4992L29.4583 9.7917L27.7515 8.08664V10.4992H28.7515ZM35.2969 17.038L36.0032 17.7458L36.7121 17.0384L36.0036 16.3305L35.2969 17.038ZM28.7515 23.57H27.7515V25.9807L29.4579 24.2778L28.7515 23.57ZM14.7356 24.1103L14.0282 23.4036L13.3242 24.1082L14.026 24.8149L14.7356 24.1103ZM21.4728 17.3663L22.1814 16.6606L21.4739 15.9503L20.7654 16.6595L21.4728 17.3663ZM28.1895 24.1103L28.9002 24.8138L29.5987 24.1082L28.8981 23.4046L28.1895 24.1103ZM21.4728 30.8954L20.7632 31.6L21.4739 32.3157L22.1835 31.5989L21.4728 30.8954ZM28.2855 23.5494L27.5761 24.2543L29.2855 25.9745V23.5494H28.2855ZM21.7676 16.9901L21.0608 16.2826L20.3552 16.9875L21.0582 17.695L21.7676 16.9901ZM28.2855 10.4786H29.2855V8.06612L27.5787 9.77118L28.2855 10.4786ZM14.5369 10.4992L15.2436 9.7917L13.5369 8.08665V10.4992H14.5369ZM21.1096 17.0653L21.8186 17.7706L22.5223 17.0631L21.8164 16.3579L21.1096 17.0653ZM14.5369 23.6726H13.5369V26.0957L15.2458 24.3778L14.5369 23.6726ZM14.5369 24.5823L15.2462 23.8774L13.5369 22.1573V24.5823H14.5369ZM21.1096 31.1963L21.8178 31.9023L22.5205 31.1974L21.8189 30.4914L21.1096 31.1963ZM14.5369 37.7899H13.5369V40.2095L15.2451 38.4958L14.5369 37.7899ZM21.7676 31.251L21.0582 30.5462L20.3567 31.2521L21.0593 31.957L21.7676 31.251ZM28.2855 24.6917H29.2855V22.2666L27.5761 23.9868L28.2855 24.6917ZM28.2855 37.7899L27.5772 38.4958L29.2855 40.2095V37.7899H28.2855ZM35.2969 31.251L36.0036 31.9585L36.7103 31.2525L36.0051 30.545L35.2969 31.251ZM28.7515 37.7899H27.7515V40.2024L29.4583 38.4973L28.7515 37.7899ZM28.7515 24.6848L29.4598 23.9789L27.7515 22.2652V24.6848H28.7515ZM36.6612 16.3302L29.2249 8.909L27.8121 10.3247L35.2484 17.7458L36.6612 16.3302ZM27.8121 8.909L20.7048 16.0018L22.1175 17.4175L29.2249 10.3247L27.8121 8.909ZM22.1175 16.0018L14.7772 8.67645L13.3644 10.0921L20.7048 17.4175L22.1175 16.0018ZM13.0708 9.38428V38.8705H15.0708V9.38428H13.0708ZM14.7769 39.5787L22.1172 32.2601L20.7051 30.8438L13.3647 38.1624L14.7769 39.5787ZM20.7048 32.2598L27.5585 39.0996L28.9713 37.6839L22.1175 30.8442L20.7048 32.2598ZM27.5585 39.0996L27.7915 39.3321L29.2043 37.9165L28.9713 37.6839L27.5585 39.0996ZM29.2024 39.3341L36.6592 31.9335L35.2504 30.5139L27.7935 37.9145L29.2024 39.3341ZM36.6622 30.5169L29.5549 23.4035L28.1401 24.8171L35.2474 31.9305L36.6622 30.5169ZM29.5528 24.8192L36.6602 17.7468L35.2495 16.3291L28.1421 23.4015L29.5528 24.8192ZM28.0448 11.2066L34.5901 17.7454L36.0036 16.3305L29.4583 9.7917L28.0448 11.2066ZM34.5905 16.3302L28.0451 22.8621L29.4579 24.2778L36.0032 17.7458L34.5905 16.3302ZM29.7515 23.57V10.4992H27.7515V23.57H29.7515ZM15.4431 24.8171L22.1803 18.073L20.7654 16.6595L14.0282 23.4036L15.4431 24.8171ZM20.7643 18.072L27.481 24.816L28.8981 23.4046L22.1814 16.6606L20.7643 18.072ZM27.4788 23.4068L20.7622 30.1918L22.1835 31.5989L28.9002 24.8138L27.4788 23.4068ZM22.1824 30.1908L15.4452 23.4057L14.026 24.8149L20.7632 31.6L22.1824 30.1908ZM28.9948 22.8446L22.4769 16.2852L21.0582 17.695L27.5761 24.2543L28.9948 22.8446ZM22.4743 17.6976L28.9922 11.1861L27.5787 9.77118L21.0608 16.2826L22.4743 17.6976ZM27.2855 10.4786V23.5494H29.2855V10.4786H27.2855ZM13.8301 11.2066L20.4028 17.7728L21.8164 16.3579L15.2436 9.7917L13.8301 11.2066ZM20.4006 16.3601L13.8279 22.9673L15.2458 24.3778L21.8186 17.7706L20.4006 16.3601ZM15.5369 23.6726V10.4992H13.5369V23.6726H15.5369ZM13.8275 25.2871L20.4003 31.9012L21.8189 30.4914L15.2462 23.8774L13.8275 25.2871ZM20.4014 30.4903L13.8286 37.0839L15.2451 38.4958L21.8178 31.9023L20.4014 30.4903ZM15.5369 37.7899V24.5823H13.5369V37.7899H15.5369ZM22.4769 31.9559L28.9948 25.3966L27.5761 23.9868L21.0582 30.5462L22.4769 31.9559ZM27.2855 24.6917V37.7899H29.2855V24.6917H27.2855ZM28.9937 37.0839L22.4758 30.5451L21.0593 31.957L27.5772 38.4958L28.9937 37.0839ZM34.5901 30.5436L28.0448 37.0824L29.4583 38.4973L36.0036 31.9585L34.5901 30.5436ZM29.7515 37.7899V24.6848H27.7515V37.7899H29.7515ZM28.0433 25.3908L34.5886 31.957L36.0051 30.545L29.4598 23.9789L28.0433 25.3908Z" fill="black" mask="url(#path-8-inside-1)"/>
</svg>
