<svg width="180" height="49" viewBox="0 0 180 49" fill="none" xmlns="http://www.w3.org/2000/svg">
<path d="M59.8538 24.9789H57.3042V33.6859H55.7896V15.2185H57.3042V23.6862H59.8538L67.1462 15.1775H68.8665V15.239L61.2246 24.2744L69.4491 33.597V33.6654H67.6465L59.8538 24.9789Z" fill="#1D1D1B"/>
<path d="M90.1954 28.5082H81.7105L79.8051 33.6859H78.2219L85.2607 15.2185H86.7L93.684 33.6859H92.1076L90.1954 28.5082ZM82.2177 27.1402H89.702L86.0146 17.1405H85.9324L82.2177 27.1402Z" fill="#1D1D1B"/>
<path d="M117.946 33.6859H116.438L105.911 17.7698H105.835V33.6859H104.314V15.2185H105.835L116.356 31.0868H116.438V15.1775H117.946V33.6859Z" fill="#1D1D1B"/>
<path d="M141.221 29.1237C141.233 28.6535 141.137 28.1867 140.941 27.7589C140.745 27.3311 140.455 26.9534 140.091 26.6545C138.907 25.827 137.566 25.2518 136.15 24.9651C134.495 24.624 132.928 23.949 131.544 22.9816C131.038 22.5997 130.631 22.1022 130.358 21.5309C130.085 20.9596 129.954 20.3312 129.974 19.6985C129.97 19.0297 130.127 18.3696 130.432 17.7742C130.738 17.1789 131.182 16.6658 131.729 16.2786C133.036 15.3454 134.619 14.8759 136.225 14.9448C137.911 14.8661 139.564 15.4338 140.844 16.5317C141.403 17.0071 141.846 17.6022 142.142 18.2725C142.437 18.9428 142.577 19.6711 142.551 20.403L142.51 20.4782H141.139C141.155 19.9059 141.046 19.337 140.818 18.8113C140.591 18.2855 140.251 17.8157 139.823 17.4345C138.83 16.5947 137.552 16.1664 136.252 16.2376C135.013 16.1652 133.785 16.5148 132.771 17.2293C132.382 17.5116 132.065 17.8819 131.847 18.3099C131.629 18.738 131.516 19.2115 131.517 19.6917C131.514 20.1436 131.618 20.5899 131.819 20.9948C132.02 21.3998 132.313 21.7522 132.675 22.024C133.869 22.8151 135.208 23.3614 136.616 23.6314C138.264 23.9774 139.817 24.6776 141.167 25.6833C141.672 26.0955 142.075 26.6185 142.345 27.2116C142.615 27.8048 142.744 28.4521 142.722 29.1032C142.742 29.7938 142.586 30.4781 142.27 31.0927C141.953 31.7073 141.487 32.2322 140.913 32.6188C139.551 33.5385 137.93 33.9988 136.287 33.9321C134.572 33.9784 132.884 33.5012 131.448 32.5641C130.779 32.1303 130.24 31.5248 129.886 30.8111C129.533 30.0974 129.379 29.3019 129.44 28.5081V28.4329H130.811C130.778 29.069 130.919 29.7021 131.217 30.2654C131.514 30.8287 131.959 31.3015 132.503 31.6339C133.643 32.3425 134.965 32.7016 136.307 32.6667C137.565 32.7254 138.809 32.388 139.864 31.7023C140.294 31.4251 140.644 31.0422 140.882 30.5905C141.119 30.1388 141.236 29.6337 141.221 29.1237Z" fill="#1D1D1B"/>
<path d="M164.031 28.5082H155.546L153.633 33.6859H152.057L159.089 15.2185H160.528L167.512 33.6859H165.936L164.031 28.5082ZM156.053 27.1402H163.53L159.843 17.1405H159.768L156.053 27.1402Z" fill="#1D1D1B"/>
<path d="M180 33.6859H178.472V15.2185H180V33.6859Z" fill="#1D1D1B"/>
<path d="M48.3326 24.1102C48.334 28.8804 46.9178 33.5438 44.2632 37.5108C41.6086 41.4777 37.8348 44.5699 33.4191 46.3963C29.0034 48.2227 24.1442 48.7013 19.4559 47.7715C14.7677 46.8417 10.461 44.5453 7.08058 41.1728C3.70018 37.8002 1.39788 33.503 0.464862 28.8246C-0.468157 24.1461 0.0100166 19.2966 1.83891 14.8894C3.6678 10.4822 6.76525 6.71525 10.7395 4.06493C14.7138 1.41461 19.3864 1.91841e-07 24.1663 0C30.5744 -2.57187e-07 36.7202 2.53996 41.2521 7.0613C45.7839 11.5826 48.3308 17.7151 48.3326 24.1102Z" fill="#1D1D1B"/>
<path d="M35.9548 17.0379L28.5185 9.61671L21.4112 16.7096L14.0708 9.38416V38.8704L21.4112 31.5519L28.2649 38.3916L28.4979 38.6242L35.9548 31.2236L28.8475 24.1102L35.9548 17.0379ZM28.7515 10.499L35.2969 17.0379L28.7515 23.5698V10.499ZM14.7356 24.1102L21.4728 17.3662L28.1895 24.1102L21.4728 30.8952L14.7356 24.1102ZM28.2855 23.5493L21.7676 16.99L28.2855 10.4785V23.5493ZM14.5369 10.499L21.1096 17.0652L14.5369 23.6724V10.499ZM14.5369 24.5821L21.1096 31.1962L14.5369 37.7897V24.5821ZM21.7676 31.2509L28.2855 24.6916V37.7897L21.7676 31.2509ZM35.2969 31.2509L28.7515 37.7897V24.6847L35.2969 31.2509Z" fill="white"/>
</svg>
