<svg id="Layer_1" data-name="Layer 1" xmlns="http://www.w3.org/2000/svg" viewBox="0 0 262.63 76.88"><defs><style>.cls-1{fill:#fff;}.cls-2{fill:#e20a13;}</style></defs><path class="cls-1" d="M108.43,45h-3.71v12.7h-2.21v-27h2.21V43.07h3.69l10.64-12.44h2.5l0,.09L110.42,43.93l12,13.64,0,.09h-2.63Z" transform="translate(-21.11 -8.44)"/><path class="cls-1" d="M152.71,50.12H140.33l-2.79,7.54h-2.3l10.27-27h2.1l10.19,27h-2.3Zm-11.64-2H152L146.6,33.51h-.11Z" transform="translate(-21.11 -8.44)"/><path class="cls-1" d="M193.2,57.66H191L175.64,34.42l-.11,0V57.66H173.3v-27h2.23l15.35,23.2H191V30.63h2.21Z" transform="translate(-21.11 -8.44)"/><path class="cls-1" d="M227.16,51a4.5,4.5,0,0,0-1.65-3.6,15.15,15.15,0,0,0-5.75-2.48A18.26,18.26,0,0,1,213,42.05a5.79,5.79,0,0,1-2.29-4.81,6.05,6.05,0,0,1,2.56-5.05,10.5,10.5,0,0,1,6.56-1.95,9.65,9.65,0,0,1,6.74,2.32,7.11,7.11,0,0,1,2.48,5.66l-.05.11h-2a5.75,5.75,0,0,0-1.92-4.45,7.49,7.49,0,0,0-5.21-1.75,8,8,0,0,0-5.08,1.45,4.44,4.44,0,0,0-1.83,3.6,4.24,4.24,0,0,0,1.69,3.41,15.78,15.78,0,0,0,5.83,2.4,17.06,17.06,0,0,1,6.64,3,6.19,6.19,0,0,1,2.27,5,6,6,0,0,1-2.64,5.15A11.3,11.3,0,0,1,220,58.05a12.36,12.36,0,0,1-7.06-2A6.51,6.51,0,0,1,210,50.08l0-.11h2a5.17,5.17,0,0,0,2.36,4.67A10,10,0,0,0,220,56.15a8.75,8.75,0,0,0,5.19-1.4A4.38,4.38,0,0,0,227.16,51Z" transform="translate(-21.11 -8.44)"/><path class="cls-1" d="M260.44,50.12H248.05l-2.78,7.54H243l10.26-27h2.1l10.19,27h-2.3Zm-11.64-2h10.91l-5.38-14.63h-.11Z" transform="translate(-21.11 -8.44)"/><path class="cls-1" d="M283.74,57.66h-2.23v-27h2.23Z" transform="translate(-21.11 -8.44)"/><path class="cls-2" d="M91.63,43.7A35.26,35.26,0,1,1,56.37,8.44,35.26,35.26,0,0,1,91.63,43.7" transform="translate(-21.11 -8.44)"/><path class="cls-1" d="M73.57,33.35,62.72,22.5,52.35,32.87,41.64,22.16V65.28L52.35,54.57l10,10,.34.34L73.57,54.09,63.2,43.72ZM63.06,23.79l9.55,9.56L63.06,42.9ZM42.61,43.72l9.82-9.89,9.81,9.89h0l-9.81,9.89Zm19.77-.82-9.52-9.59,9.52-9.52ZM42.32,23.79l9.59,9.6-9.59,9.67Zm0,20.59,9.59,9.67-9.59,9.6Zm10.54,9.75,9.52-9.59V63.65Zm19.75,0-9.55,9.56V44.53Z" transform="translate(-21.11 -8.44)"/><path class="cls-1" d="M136.58,70.61l.09.32h0l1.12-3h1.27l-2,4.84a2.5,2.5,0,0,1-.61.9,1.44,1.44,0,0,1-1,.31h-.24L135,74v-.92l.15,0h.17a.75.75,0,0,0,.49-.14,1.06,1.06,0,0,0,.27-.43l.09-.23L134.07,68h1.29Z" transform="translate(-21.11 -8.44)"/><path class="cls-1" d="M143.27,73.93h-1.2V72.21h-1.45v1.72h-1.2V69.5h1.2v1.79h1.45V69.5h1.2Z" transform="translate(-21.11 -8.44)"/><path class="cls-1" d="M146.82,69.5H148v4.43h-1.19V71.22h0l-1.45,2.71h-1.2V69.5h1.2v2.69h0Z" transform="translate(-21.11 -8.44)"/><path class="cls-1" d="M149,73.93V69.5h1.85a2.57,2.57,0,0,1,1.38.31,1,1,0,0,1,.49.92.89.89,0,0,1-.2.56,1.29,1.29,0,0,1-.59.36,1.4,1.4,0,0,1,.76.37.89.89,0,0,1,.26.64,1.07,1.07,0,0,1-.47,1,2.39,2.39,0,0,1-1.34.32Zm1.2-2.63h.68a.87.87,0,0,0,.49-.1.35.35,0,0,0,.16-.32.37.37,0,0,0-.17-.35.88.88,0,0,0-.51-.11h-.65Zm0,.78V73h.94a.78.78,0,0,0,.47-.12.41.41,0,0,0,.15-.35.43.43,0,0,0-.15-.35.74.74,0,0,0-.47-.12Z" transform="translate(-21.11 -8.44)"/><path class="cls-1" d="M155.61,74a2,2,0,0,1-1.54-.61,2.21,2.21,0,0,1-.57-1.56v-.17a2.42,2.42,0,0,1,.54-1.62,1.81,1.81,0,0,1,1.46-.64,1.79,1.79,0,0,1,1.39.54,2.09,2.09,0,0,1,.5,1.47v.65h-2.65v0a1.12,1.12,0,0,0,.3.72.88.88,0,0,0,.7.28,2.37,2.37,0,0,0,.66-.08,2.75,2.75,0,0,0,.57-.25l.33.74a2.25,2.25,0,0,1-.71.37A3.29,3.29,0,0,1,155.61,74Zm-.11-3.67a.63.63,0,0,0-.53.25,1.4,1.4,0,0,0-.23.67v0h1.47v-.11a1,1,0,0,0-.18-.61A.65.65,0,0,0,155.5,70.34Z" transform="translate(-21.11 -8.44)"/><path class="cls-1" d="M162.08,71.83a2.59,2.59,0,0,1-.45,1.59,1.53,1.53,0,0,1-1.27.59,1.35,1.35,0,0,1-.62-.13,1.22,1.22,0,0,1-.47-.38v2.13h-1.19V69.5h1.08l.07.52a1.54,1.54,0,0,1,.47-.45,1.36,1.36,0,0,1,.65-.16,1.49,1.49,0,0,1,1.28.65,2.89,2.89,0,0,1,.45,1.69Zm-1.2-.09a2.28,2.28,0,0,0-.2-1,.68.68,0,0,0-.64-.38.83.83,0,0,0-.46.11.84.84,0,0,0-.31.31v1.95a.76.76,0,0,0,.31.28.92.92,0,0,0,.46.1.68.68,0,0,0,.64-.34,1.75,1.75,0,0,0,.2-.92Z" transform="translate(-21.11 -8.44)"/><path class="cls-1" d="M165.5,72.53h0l1.14-3h1.5v4.43H167V71.28h0l-1,2.65h-.8l-1-2.6h0v2.59h-1.19V69.5h1.48Z" transform="translate(-21.11 -8.44)"/><path class="cls-1" d="M171.79,73.93a3,3,0,0,1-.11-.32c0-.11-.05-.23-.07-.35a1.56,1.56,0,0,1-.48.54,1.22,1.22,0,0,1-.72.21,1.49,1.49,0,0,1-1.07-.36,1.26,1.26,0,0,1-.38-1,1.17,1.17,0,0,1,.5-1,2.51,2.51,0,0,1,1.47-.36h.66V71a.7.7,0,0,0-.16-.5.66.66,0,0,0-.5-.17.64.64,0,0,0-.45.14.5.5,0,0,0-.16.39h-1.15v0a1.17,1.17,0,0,1,.49-1,2.16,2.16,0,0,1,1.36-.41,2,2,0,0,1,1.29.41,1.39,1.39,0,0,1,.49,1.15V72.8a3.58,3.58,0,0,0,.05.58,2.81,2.81,0,0,0,.15.55Zm-1.09-.8a1,1,0,0,0,.56-.16.71.71,0,0,0,.33-.36V72h-.66a.78.78,0,0,0-.58.19.61.61,0,0,0-.2.46.45.45,0,0,0,.15.35A.57.57,0,0,0,170.7,73.13Z" transform="translate(-21.11 -8.44)"/><path class="cls-1" d="M176.7,70.42h-1.83v3.51h-1.19V69.5h3Z" transform="translate(-21.11 -8.44)"/><path class="cls-1" d="M182,72.53h0l1.14-3h1.5v4.43h-1.19V71.28h0l-1,2.65h-.8l-1-2.6h0v2.59h-1.19V69.5h1.48Z" transform="translate(-21.11 -8.44)"/><path class="cls-1" d="M185.48,71.67a2.41,2.41,0,0,1,.55-1.62,1.92,1.92,0,0,1,1.54-.64,2,2,0,0,1,1.54.63,2.38,2.38,0,0,1,.55,1.63v.09a2.36,2.36,0,0,1-.55,1.62,2.19,2.19,0,0,1-3.07,0,2.36,2.36,0,0,1-.56-1.62Zm1.19.08a1.87,1.87,0,0,0,.22,1,.73.73,0,0,0,.68.36.72.72,0,0,0,.68-.37,1.83,1.83,0,0,0,.22-1v-.08a2,2,0,0,0-.22-1,.81.81,0,0,0-1.36,0,1.84,1.84,0,0,0-.22,1Z" transform="translate(-21.11 -8.44)"/><path class="cls-1" d="M190.46,73a2.25,2.25,0,0,0,.55-.84,3.77,3.77,0,0,0,.16-1.17l0-1.49h3.27V73h.64L195,75.25h-1.11V73.93h-2.62v1.32h-1.11l-.1-2.25Zm1.91-2a5.27,5.27,0,0,1-.17,1.15,2.83,2.83,0,0,1-.37.86h1.44V70.45h-.9Z" transform="translate(-21.11 -8.44)"/><path class="cls-1" d="M199.53,73.93h-1.19V72.21h-1.46v1.72h-1.2V69.5h1.2v1.79h1.46V69.5h1.19Z" transform="translate(-21.11 -8.44)"/><path class="cls-1" d="M200.25,71.67a2.36,2.36,0,0,1,.56-1.62,1.88,1.88,0,0,1,1.53-.64,2,2,0,0,1,1.54.63,2.38,2.38,0,0,1,.55,1.63v.09a2.36,2.36,0,0,1-.55,1.62,2.19,2.19,0,0,1-3.07,0,2.36,2.36,0,0,1-.56-1.62Zm1.19.08a2,2,0,0,0,.22,1,.74.74,0,0,0,.69.36.71.71,0,0,0,.67-.37,1.83,1.83,0,0,0,.22-1v-.08a1.84,1.84,0,0,0-.22-1,.81.81,0,0,0-1.36,0,2,2,0,0,0-.22,1Z" transform="translate(-21.11 -8.44)"/><path class="cls-1" d="M207.82,69.5H209v4.43h-1.19V71.22h0l-1.44,2.71h-1.2V69.5h1.2v2.69h0Zm.65-1.93v0a1,1,0,0,1-.37.85,1.5,1.5,0,0,1-1,.33,1.52,1.52,0,0,1-1-.33,1,1,0,0,1-.36-.85v0h.87a.51.51,0,0,0,.12.35.49.49,0,0,0,.39.14.48.48,0,0,0,.39-.14.51.51,0,0,0,.12-.35Z" transform="translate(-21.11 -8.44)"/><path class="cls-1" d="M211.81,71.67a2.36,2.36,0,0,1,.55-1.62,2.17,2.17,0,0,1,3.07,0,2.34,2.34,0,0,1,.56,1.63v.09a2.36,2.36,0,0,1-.55,1.62,1.94,1.94,0,0,1-1.54.63,2,2,0,0,1-1.54-.63,2.36,2.36,0,0,1-.55-1.62Zm1.19.08a2,2,0,0,0,.21,1,.76.76,0,0,0,.69.36.72.72,0,0,0,.68-.37,1.93,1.93,0,0,0,.22-1v-.08a2,2,0,0,0-.22-1,.73.73,0,0,0-.68-.37.72.72,0,0,0-.68.37,1.84,1.84,0,0,0-.22,1Z" transform="translate(-21.11 -8.44)"/><path class="cls-1" d="M216.79,73a2.25,2.25,0,0,0,.55-.84A4.09,4.09,0,0,0,217.5,71l0-1.49h3.27V73h.64l-.08,2.24h-1.11V73.93h-2.62v1.32h-1.11L216.4,73Zm1.9-2a5.31,5.31,0,0,1-.16,1.15,3.1,3.1,0,0,1-.37.86h1.44V70.45h-.9Z" transform="translate(-21.11 -8.44)"/><path class="cls-1" d="M224,74a2,2,0,0,1-1.53-.61,2.21,2.21,0,0,1-.57-1.56v-.17a2.42,2.42,0,0,1,.54-1.62,1.81,1.81,0,0,1,1.46-.64,1.79,1.79,0,0,1,1.39.54,2.09,2.09,0,0,1,.5,1.47v.65h-2.65v0a1.17,1.17,0,0,0,.29.72.92.92,0,0,0,.71.28,2.37,2.37,0,0,0,.66-.08,3,3,0,0,0,.57-.25l.33.74a2.25,2.25,0,0,1-.71.37A3.31,3.31,0,0,1,224,74Zm-.1-3.67a.63.63,0,0,0-.53.25,1.3,1.3,0,0,0-.24.67l0,0h1.46v-.11a1,1,0,0,0-.17-.61A.65.65,0,0,0,223.89,70.34Z" transform="translate(-21.11 -8.44)"/><path class="cls-1" d="M230.73,72.26h-.52v1.67H229V72.26h-.52l-.85,1.67h-1.54l1.44-2.41-1.36-2h1.51l.88,1.67H229V69.5h1.19v1.67h.44l.89-1.67h1.51l-1.36,2,1.43,2.41h-1.53Z" transform="translate(-21.11 -8.44)"/><path class="cls-1" d="M233.72,73a2.38,2.38,0,0,0,.55-.84,4.49,4.49,0,0,0,.16-1.17l0-1.49h3.27V73h.64l-.09,2.24h-1.11V73.93h-2.61v1.32h-1.12l-.1-2.25Zm1.9-2a5.27,5.27,0,0,1-.17,1.15,2.83,2.83,0,0,1-.37.86h1.44V70.45h-.89Z" transform="translate(-21.11 -8.44)"/><path class="cls-1" d="M240.31,70.93h.83a2.18,2.18,0,0,1,1.4.41,1.29,1.29,0,0,1,.52,1.08,1.32,1.32,0,0,1-.52,1.09,2.13,2.13,0,0,1-1.4.42h-2V69.5h1.2Zm0,.92V73h.83a.8.8,0,0,0,.55-.17.5.5,0,0,0,.17-.41.54.54,0,0,0-.17-.42.86.86,0,0,0-.55-.16Zm4.36,2.08h-1.2V69.5h1.2Z" transform="translate(-21.11 -8.44)"/><path class="cls-1" d="M119.67,83.06a2.3,2.3,0,0,0,.55-.83,3.89,3.89,0,0,0,.16-1.18l0-1.49h3.27v3.51h.64l-.08,2.25h-1.11V84H120.5v1.33h-1.11l-.1-2.26Zm1.91-2a5.37,5.37,0,0,1-.17,1.16,2.76,2.76,0,0,1-.37.85h1.44V80.51h-.9Z" transform="translate(-21.11 -8.44)"/><path class="cls-1" d="M128.75,79.56V84h-1.19V80.48h-1.07v1a3.58,3.58,0,0,1-.4,1.93,1.48,1.48,0,0,1-1.37.62h-.19v-.94h.12a.52.52,0,0,0,.54-.33,4.42,4.42,0,0,0,.12-1.26V79.56Z" transform="translate(-21.11 -8.44)"/><path class="cls-1" d="M133.35,79.56V84h-1.18V82.44h-.72L130.58,84h-1.21l1-1.75a1.49,1.49,0,0,1-.63-.49,1.28,1.28,0,0,1-.22-.72A1.32,1.32,0,0,1,130,80a2.16,2.16,0,0,1,1.38-.41Zm-2.65,1.51a.51.51,0,0,0,.18.39.68.68,0,0,0,.5.17h.79V80.48h-.77a.73.73,0,0,0-.52.18A.57.57,0,0,0,130.7,81.07Z" transform="translate(-21.11 -8.44)"/><path class="cls-1" d="M139,84a3,3,0,0,1-.11-.32c0-.11-.05-.23-.07-.34a1.62,1.62,0,0,1-.48.53,1.16,1.16,0,0,1-.72.22,1.47,1.47,0,0,1-1.07-.36,1.27,1.27,0,0,1-.38-1,1.19,1.19,0,0,1,.5-1,2.48,2.48,0,0,1,1.46-.36h.67V81a.64.64,0,0,0-.17-.49.63.63,0,0,0-.49-.18.65.65,0,0,0-.45.14.5.5,0,0,0-.16.39h-1.15v0a1.12,1.12,0,0,1,.49-1,2.08,2.08,0,0,1,1.36-.41,2,2,0,0,1,1.29.4A1.39,1.39,0,0,1,140,81v1.83a3.7,3.7,0,0,0,.05.59,2.72,2.72,0,0,0,.15.54Zm-1.09-.8a1,1,0,0,0,.56-.15.92.92,0,0,0,.33-.36v-.63h-.67a.77.77,0,0,0-.57.19.63.63,0,0,0-.2.46.46.46,0,0,0,.15.36A.57.57,0,0,0,138,83.19Z" transform="translate(-21.11 -8.44)"/><path class="cls-1" d="M142.67,82.33h-.46V84H141V79.56h1.19v1.69h.42l1-1.69h1.52l-1.45,2.09L145.23,84h-1.6Z" transform="translate(-21.11 -8.44)"/><path class="cls-1" d="M149.4,80.48H148V84h-1.2V80.48h-1.39v-.92h4Z" transform="translate(-21.11 -8.44)"/><path class="cls-1" d="M152.68,79.56h1.19V84h-1.19v-2.7h0L151.21,84H150V79.56h1.2v2.69h0Z" transform="translate(-21.11 -8.44)"/><path class="cls-1" d="M154.83,84V79.56h1.85a2.5,2.5,0,0,1,1.37.31,1,1,0,0,1,.5.93.82.82,0,0,1-.21.55,1.33,1.33,0,0,1-.59.37,1.4,1.4,0,0,1,.77.37.9.9,0,0,1,.26.64,1.07,1.07,0,0,1-.47.94A2.4,2.4,0,0,1,157,84ZM156,81.37h.69a.91.91,0,0,0,.49-.11.38.38,0,0,0,.16-.32.4.4,0,0,0-.17-.35,1,1,0,0,0-.51-.11H156Zm0,.77v.94H157a.76.76,0,0,0,.47-.12.39.39,0,0,0,.15-.34.45.45,0,0,0-.14-.35.71.71,0,0,0-.48-.13Z" transform="translate(-21.11 -8.44)"/><path class="cls-1" d="M163.33,84h-1.2V82.27h-1.46V84h-1.19V79.56h1.19v1.79h1.46V79.56h1.2Z" transform="translate(-21.11 -8.44)"/><path class="cls-1" d="M165.58,81h.84a2.2,2.2,0,0,1,1.4.41,1.34,1.34,0,0,1,.51,1.08,1.36,1.36,0,0,1-.51,1.1,2.2,2.2,0,0,1-1.4.41h-2V79.56h1.2Zm0,.92v1.16h.84a.77.77,0,0,0,.54-.16.54.54,0,0,0,.18-.42.54.54,0,0,0-.18-.41.78.78,0,0,0-.54-.17ZM170,84h-1.2V79.56H170Z" transform="translate(-21.11 -8.44)"/><path class="cls-1" d="M172.87,81h0l.68-1.41h1.35l-1.34,2.19L175,84h-1.34l-.73-1.47L172.18,84h-1.35l1.38-2.24-1.34-2.19h1.34Z" transform="translate(-21.11 -8.44)"/><path class="cls-1" d="M181.84,82.32h-.52V84h-1.19V82.32h-.52L178.75,84h-1.53l1.44-2.4-1.36-2h1.5l.89,1.67h.44V79.56h1.19v1.67h.44l.89-1.67h1.51l-1.36,2,1.43,2.4h-1.54Z" transform="translate(-21.11 -8.44)"/><path class="cls-1" d="M187.41,79.56h1.19V84h-1.19v-2.7h0L185.94,84h-1.2V79.56h1.2v2.69h0Z" transform="translate(-21.11 -8.44)"/><path class="cls-1" d="M193.25,80.48h-1.42V84h-1.2V80.48h-1.4v-.92h4Z" transform="translate(-21.11 -8.44)"/><path class="cls-1" d="M195.76,84.08a2,2,0,0,1-1.54-.62,2.21,2.21,0,0,1-.57-1.56v-.16a2.45,2.45,0,0,1,.54-1.63,1.84,1.84,0,0,1,1.46-.63A1.79,1.79,0,0,1,197,80a2.09,2.09,0,0,1,.5,1.46v.65h-2.65v0a1.13,1.13,0,0,0,.3.71.9.9,0,0,0,.7.29,2.37,2.37,0,0,0,.66-.08,3.17,3.17,0,0,0,.58-.26l.32.74a2.25,2.25,0,0,1-.71.37A3,3,0,0,1,195.76,84.08Zm-.11-3.68a.6.6,0,0,0-.52.25,1.3,1.3,0,0,0-.24.67v0h1.47v-.11a.93.93,0,0,0-.18-.6A.65.65,0,0,0,195.65,80.4Z" transform="translate(-21.11 -8.44)"/><path class="cls-1" d="M202.07,79.56V84h-1.19V80.48h-1.07v1a3.58,3.58,0,0,1-.4,1.93A1.48,1.48,0,0,1,198,84h-.19v-.94H198a.52.52,0,0,0,.54-.33,4.42,4.42,0,0,0,.12-1.26V79.56Z" transform="translate(-21.11 -8.44)"/><path class="cls-1" d="M204.9,84.08a2,2,0,0,1-1.53-.62,2.21,2.21,0,0,1-.57-1.56v-.16a2.45,2.45,0,0,1,.54-1.63,2,2,0,0,1,2.85-.09,2.08,2.08,0,0,1,.49,1.46v.65H204v0a1.12,1.12,0,0,0,.29.71.91.91,0,0,0,.71.29,2.48,2.48,0,0,0,.66-.08,3.43,3.43,0,0,0,.57-.26l.32.74a2.15,2.15,0,0,1-.71.37A3,3,0,0,1,204.9,84.08Zm-.11-3.68a.61.61,0,0,0-.52.25,1.3,1.3,0,0,0-.24.67v0h1.47v-.11a.93.93,0,0,0-.18-.6A.65.65,0,0,0,204.79,80.4Z" transform="translate(-21.11 -8.44)"/><path class="cls-1" d="M210,79.56h1.2V84H210v-2.7h0L208.55,84h-1.19V79.56h1.19v2.69h0Zm.66-1.93v0a1,1,0,0,1-.36.84,1.47,1.47,0,0,1-1,.34,1.52,1.52,0,0,1-1-.34,1,1,0,0,1-.36-.84v0h.88a.54.54,0,0,0,.12.36.5.5,0,0,0,.39.14.49.49,0,0,0,.38-.14.5.5,0,0,0,.13-.36Z" transform="translate(-21.11 -8.44)"/><path class="cls-1" d="M216.88,82.6h0l1.15-3h1.49V84h-1.19V81.35h0l-1,2.65h-.81l-1-2.59h0V84h-1.2V79.56h1.48Z" transform="translate(-21.11 -8.44)"/><path class="cls-1" d="M222.54,84.08a2,2,0,0,1-1.53-.62,2.21,2.21,0,0,1-.58-1.56v-.16a2.4,2.4,0,0,1,.55-1.63,1.81,1.81,0,0,1,1.45-.63,1.79,1.79,0,0,1,1.39.54,2.09,2.09,0,0,1,.5,1.46v.65h-2.64v0a1.12,1.12,0,0,0,.29.71.91.91,0,0,0,.71.29,2.48,2.48,0,0,0,.66-.08,3.43,3.43,0,0,0,.57-.26l.32.74a2.15,2.15,0,0,1-.71.37A3,3,0,0,1,222.54,84.08Zm-.11-3.68a.61.61,0,0,0-.52.25,1.3,1.3,0,0,0-.24.67v0h1.47v-.11a.93.93,0,0,0-.18-.6A.65.65,0,0,0,222.43,80.4Z" transform="translate(-21.11 -8.44)"/><path class="cls-1" d="M228,80.48h-1.83V84H225V79.56h3Z" transform="translate(-21.11 -8.44)"/><path class="cls-1" d="M231.12,84a1.73,1.73,0,0,1-.11-.32,1.37,1.37,0,0,1-.07-.34,1.65,1.65,0,0,1-.49.53,1.16,1.16,0,0,1-.72.22,1.49,1.49,0,0,1-1.07-.36,1.3,1.3,0,0,1-.38-1,1.17,1.17,0,0,1,.51-1,2.48,2.48,0,0,1,1.46-.36h.67V81a.68.68,0,0,0-.17-.49.77.77,0,0,0-.94,0,.5.5,0,0,0-.16.39h-1.16v0a1.1,1.1,0,0,1,.49-1,2.05,2.05,0,0,1,1.35-.41,2,2,0,0,1,1.29.4,1.4,1.4,0,0,1,.5,1.15v1.83a3.73,3.73,0,0,0,0,.59,5.44,5.44,0,0,0,.15.54Zm-1.09-.8a1.07,1.07,0,0,0,.56-.15.92.92,0,0,0,.33-.36v-.63h-.67a.8.8,0,0,0-.58.19.62.62,0,0,0-.19.46.49.49,0,0,0,.14.36A.59.59,0,0,0,230,83.19Z" transform="translate(-21.11 -8.44)"/><path class="cls-1" d="M236.86,84h-1.2V80.48H234.2V84H233V79.56h3.86Z" transform="translate(-21.11 -8.44)"/><path class="cls-1" d="M237.57,81.73a2.36,2.36,0,0,1,.56-1.62,1.91,1.91,0,0,1,1.53-.63,2,2,0,0,1,1.54.63,2.36,2.36,0,0,1,.55,1.62v.09a2.37,2.37,0,0,1-.55,1.63,2.19,2.19,0,0,1-3.07,0,2.37,2.37,0,0,1-.56-1.63Zm1.19.09a1.93,1.93,0,0,0,.22,1,.74.74,0,0,0,.69.37.73.73,0,0,0,.67-.37,1.86,1.86,0,0,0,.22-1v-.09a1.84,1.84,0,0,0-.22-1,.81.81,0,0,0-1.36,0,2,2,0,0,0-.22,1Z" transform="translate(-21.11 -8.44)"/><path class="cls-1" d="M246.25,79.56V84h-1.19V80.48H244v1a3.68,3.68,0,0,1-.4,1.93,1.51,1.51,0,0,1-1.38.62H242v-.94h.13a.51.51,0,0,0,.53-.33,4.42,4.42,0,0,0,.12-1.26V79.56Z" transform="translate(-21.11 -8.44)"/><path class="cls-1" d="M249.77,79.56H251V84h-1.19v-2.7h0L248.3,84h-1.2V79.56h1.2v2.69h0Z" transform="translate(-21.11 -8.44)"/><path class="cls-1" d="M253.72,83.16a.73.73,0,0,0,.51-.19.66.66,0,0,0,.19-.5h1.08l0,0a1.38,1.38,0,0,1-.51,1.12,1.87,1.87,0,0,1-1.29.46,1.89,1.89,0,0,1-1.53-.63,2.37,2.37,0,0,1-.54-1.61v-.12a2.39,2.39,0,0,1,.54-1.61,1.87,1.87,0,0,1,1.52-.63,1.85,1.85,0,0,1,1.32.46,1.56,1.56,0,0,1,.49,1.23v0h-1.09a.84.84,0,0,0-.19-.57.64.64,0,0,0-.52-.23.69.69,0,0,0-.67.37,2,2,0,0,0-.19,1v.12a2,2,0,0,0,.19,1A.72.72,0,0,0,253.72,83.16Z" transform="translate(-21.11 -8.44)"/><path class="cls-1" d="M258.8,84a3,3,0,0,1-.12-.32,2,2,0,0,1-.06-.34,1.77,1.77,0,0,1-.49.53,1.16,1.16,0,0,1-.72.22,1.49,1.49,0,0,1-1.07-.36,1.3,1.3,0,0,1-.38-1,1.19,1.19,0,0,1,.5-1,2.53,2.53,0,0,1,1.47-.36h.67V81a.68.68,0,0,0-.17-.49.77.77,0,0,0-.94,0,.5.5,0,0,0-.16.39h-1.16v0a1.11,1.11,0,0,1,.48-1,2.1,2.1,0,0,1,1.36-.41,2,2,0,0,1,1.29.4,1.4,1.4,0,0,1,.5,1.15v1.83a3.73,3.73,0,0,0,0,.59A2.72,2.72,0,0,0,260,84Zm-1.1-.8a1,1,0,0,0,.56-.15.88.88,0,0,0,.34-.36v-.63h-.67a.8.8,0,0,0-.58.19.63.63,0,0,0-.2.46.46.46,0,0,0,.15.36A.57.57,0,0,0,257.7,83.19Z" transform="translate(-21.11 -8.44)"/></svg>