<svg width="1854" height="2334" viewBox="0 0 1854 2334" fill="none" xmlns="http://www.w3.org/2000/svg">
<rect x="944.828" y="1326" width="70.4672" height="70.4672" transform="rotate(45 944.828 1326)" fill="#0A3506" fill-opacity="0.1"/>
<rect x="1381.83" y="1242" width="70.4672" height="70.4672" transform="rotate(45 1381.83 1242)" fill="#0A3506" fill-opacity="0.1"/>
<rect x="1723.83" y="1238" width="70.4672" height="70.4672" transform="rotate(45 1723.83 1238)" fill="#0A3506" fill-opacity="0.1"/>
<rect x="1128.83" y="857" width="70.4672" height="70.4672" transform="rotate(45 1128.83 857)" fill="#0A3506" fill-opacity="0.1"/>
<rect x="380.828" y="1085" width="70.4672" height="70.4672" transform="rotate(45 380.828 1085)" fill="#0A3506" fill-opacity="0.1"/>
<rect x="944.828" y="593" width="70.4672" height="70.4672" transform="rotate(45 944.828 593)" fill="#0A3506" fill-opacity="0.1"/>
<rect x="1481.83" y="1255.95" width="69.4672" height="69.4672" transform="rotate(-135 1481.83 1255.95)" stroke="#EEE7E7"/>
<rect x="521.828" y="1424.95" width="69.4672" height="69.4672" transform="rotate(-135 521.828 1424.95)" stroke="#EEE7E7"/>
<rect x="754.828" y="1255.95" width="69.4672" height="69.4672" transform="rotate(-135 754.828 1255.95)" stroke="#EEE7E7"/>
<rect x="122.828" y="1283.95" width="69.4672" height="69.4672" transform="rotate(-135 122.828 1283.95)" stroke="#EEE7E7"/>
<rect x="208.828" y="1556" width="70.4672" height="70.4672" transform="rotate(45 208.828 1556)" fill="#0A3506" fill-opacity="0.1"/>
<rect x="-15.1721" y="2234" width="70.4672" height="70.4672" transform="rotate(45 -15.1721 2234)" fill="#0A3506" fill-opacity="0.1"/>
<rect x="1299.83" y="7.70711" width="69.4672" height="69.4672" transform="rotate(45 1299.83 7.70711)" stroke="#EEE7E7"/>
<rect x="1614.83" y="0.707107" width="69.4672" height="69.4672" transform="rotate(45 1614.83 0.707107)" stroke="#EEE7E7"/>
<rect x="191.828" y="0.707107" width="69.4672" height="69.4672" transform="rotate(45 191.828 0.707107)" stroke="#EEE7E7"/>
<rect x="1166.83" y="603.949" width="69.4672" height="69.4672" transform="rotate(-135 1166.83 603.949)" stroke="#EEE7E7"/>
<rect x="633.828" y="770.949" width="69.4672" height="69.4672" transform="rotate(-135 633.828 770.949)" stroke="#EEE7E7"/>
<rect x="350.828" y="900.949" width="69.4672" height="69.4672" transform="rotate(-135 350.828 900.949)" stroke="#EEE7E7"/>
<rect x="308.828" y="1971.95" width="69.4672" height="69.4672" transform="rotate(-135 308.828 1971.95)" stroke="#EEE7E7"/>
<rect x="1596.83" y="523.707" width="69.4672" height="69.4672" transform="rotate(45 1596.83 523.707)" stroke="#EEE7E7"/>
<rect x="158.828" y="459.707" width="69.4672" height="69.4672" transform="rotate(45 158.828 459.707)" stroke="#EEE7E7"/>
<rect x="1199.83" y="144.949" width="69.4672" height="69.4672" transform="rotate(-135 1199.83 144.949)" stroke="#EEE7E7"/>
<rect x="1692.83" y="317.707" width="69.4672" height="69.4672" transform="rotate(45 1692.83 317.707)" stroke="#EEE7E7"/>
<rect x="269.828" y="317.707" width="69.4672" height="69.4672" transform="rotate(45 269.828 317.707)" stroke="#EEE7E7"/>
<rect x="1515.83" y="1409.71" width="69.4672" height="69.4672" transform="rotate(45 1515.83 1409.71)" stroke="#EEE7E7"/>
<rect x="1088.83" y="286.949" width="69.4672" height="69.4672" transform="rotate(-135 1088.83 286.949)" stroke="#EEE7E7"/>
<rect x="1381.83" y="509" width="70.4672" height="70.4672" transform="rotate(45 1381.83 509)" fill="#0A3506" fill-opacity="0.1"/>
<rect x="1773.83" y="161" width="70.4672" height="70.4672" transform="rotate(45 1773.83 161)" fill="#0A3506" fill-opacity="0.1"/>
<rect x="350.828" y="161" width="70.4672" height="70.4672" transform="rotate(45 350.828 161)" fill="#0A3506" fill-opacity="0.1"/>
<rect x="1007.83" y="443.656" width="70.4672" height="70.4672" transform="rotate(-135 1007.83 443.656)" fill="#0A3506" fill-opacity="0.1"/>
<rect x="1588.83" y="192" width="70.4672" height="70.4672" transform="rotate(45 1588.83 192)" fill="#0A3506" fill-opacity="0.1"/>
<rect x="165.828" y="192" width="70.4672" height="70.4672" transform="rotate(45 165.828 192)" fill="#0A3506" fill-opacity="0.1"/>
<rect x="1803.83" y="1521" width="70.4672" height="70.4672" transform="rotate(45 1803.83 1521)" fill="#0A3506" fill-opacity="0.1"/>
<rect x="1192.83" y="412.656" width="70.4672" height="70.4672" transform="rotate(-135 1192.83 412.656)" fill="#0A3506" fill-opacity="0.1"/>
<rect x="1723.83" y="505" width="70.4672" height="70.4672" transform="rotate(45 1723.83 505)" fill="#0A3506" fill-opacity="0.1"/>
<rect x="300.828" y="505" width="70.4672" height="70.4672" transform="rotate(45 300.828 505)" fill="#0A3506" fill-opacity="0.1"/>
<rect x="1057.83" y="99.6558" width="70.4672" height="70.4672" transform="rotate(-135 1057.83 99.6558)" fill="#0A3506" fill-opacity="0.1"/>
</svg>
