<svg width="434" height="505" viewBox="0 0 434 505" fill="none" xmlns="http://www.w3.org/2000/svg">
<path d="M0 50C0 22.3857 22.3858 0 50 0H384C411.614 0 434 22.3858 434 50V455C434 482.614 411.614 505 384 505H50C22.3858 505 0 482.614 0 455V50Z" fill="#ED702B"/>
<path d="M0 50C0 22.3858 22.3858 0 50 0H358.399C374.195 0 387 12.8052 387 28.6012C387 40.5621 379.557 51.2598 368.343 55.4182L67.3835 167.014C34.7244 179.124 0 154.965 0 120.133V50Z" fill="#E72A66"/>
<path d="M384 -2.18557e-06C411.614 -9.78513e-07 434 22.3858 434 50L434 405.845C434 421.395 421.395 434 405.845 434C393.701 434 382.925 426.214 379.113 414.684L263.722 65.6965C253.024 33.3422 277.118 -6.85755e-06 311.195 -5.368e-06L384 -2.18557e-06Z" fill="#6BB538"/>
<path d="M434 455C434 482.614 411.614 505 384 505H59.4387C43.7324 505 31 492.268 31 476.561C31 464.533 38.5675 453.805 49.899 449.77L367.228 336.776C399.782 325.184 434 349.323 434 383.879V455Z" fill="#1776A5"/>
<path d="M50 505C22.3858 505 2.66948e-07 482.614 5.96244e-07 455L4.83965e-06 99.1551C5.02508e-06 83.6054 12.6055 71 28.1551 71C40.299 71 51.0745 78.7864 54.8869 90.3164L170.278 439.304C180.976 471.658 156.882 505 122.805 505L50 505Z" fill="#FCC020"/>
</svg>
