<svg width="1920" height="2280" viewBox="0 130 1920 2280" fill="none" xmlns="http://www.w3.org/2000/svg">
<path d="M581 1524C426.423 1801.98 121.833 1848.83 1.99998 1845.5L-32 1294C-44 1188.33 -37.1 1019.2 86.5 1188C241 1399 759.5 1203 581 1524Z" fill="#CC3A89"/>
<path d="M486.155 1533.53C331.578 1811.51 26.9883 1858.37 -92.845 1855.03L-126.845 1303.53C-138.845 1197.87 -131.945 1028.73 -8.34499 1197.53C146.155 1408.53 664.655 1212.53 486.155 1533.53Z" stroke="white" stroke-width="8"/>
<path d="M1887.08 1020.84C1404.45 981.965 1379.35 264.372 2066.35 132.872L2622.21 544.874C2769.73 621.353 2987.43 772.347 2678.1 764.489C2291.44 754.667 2433.73 1064.87 1887.08 1020.84Z" fill="#1776A5"/>
<path d="M2014.08 1020.84C1531.45 981.965 1506.35 264.372 2193.35 132.872L2749.21 544.874C2896.73 621.353 3114.43 772.347 2805.1 764.489C2418.44 754.667 2560.73 1064.87 2014.08 1020.84Z" stroke="white" stroke-width="8"/>
<circle cx="1633.5" cy="1826.5" r="59.5" fill="#F3EDF4"/>
<circle cx="319.5" cy="2153.5" r="159" stroke="#F3EDF4" stroke-width="5"/>
<circle r="59" transform="matrix(-1 0 0 1 928.5 751.5)" stroke="#F3EDF4" stroke-width="5"/>
<path d="M367.687 274.229L283.857 587.086L54.8299 358.059L367.687 274.229Z" fill="#844894" fill-opacity="0.1"/>
<path d="M1860.87 747.876L1697.3 723.061L1800.58 593.811L1860.87 747.876Z" fill="#844894" fill-opacity="0.1"/>
<path d="M1770.89 464.032L1744.49 365.489L1843.03 391.894L1770.89 464.032Z" fill="#844894" fill-opacity="0.1"/>
<path d="M1464.87 2303.88L1301.3 2279.06L1404.58 2149.81L1464.87 2303.88Z" fill="#844894" fill-opacity="0.1"/>
<path d="M1265 317.632L1071.92 369.368L1123.65 176.285L1265 317.632Z" stroke="#844894" stroke-opacity="0.1" stroke-width="5"/>
<path d="M1394.76 1616.15L1201.68 1667.89L1253.41 1474.81L1394.76 1616.15Z" stroke="#844894" stroke-opacity="0.1" stroke-width="5"/>
<rect x="1128.83" y="995" width="70.4672" height="70.4672" transform="rotate(45 1128.83 995)" fill="#0A3506" fill-opacity="0.1"/>
<rect x="350.828" y="1059.95" width="69.4672" height="69.4672" transform="rotate(-135 350.828 1059.95)" stroke="#EEE7E7"/>
<rect x="1088.83" y="445.949" width="69.4672" height="69.4672" transform="rotate(-135 1088.83 445.949)" stroke="#EEE7E7"/>
<rect x="1007.83" y="602.656" width="70.4672" height="70.4672" transform="rotate(-135 1007.83 602.656)" fill="#0A3506" fill-opacity="0.1"/>
</svg>
